<svg xmlns="http://www.w3.org/2000/svg" viewBox="0 0 1600 900" role="img" aria-labelledby="title desc">
  <title id="title">Relay apartment hidden-object prototype</title>
  <desc id="desc">A stylized apartment with platforms, furniture, and recoverable objects.</desc>
  <defs>
    <linearGradient id="wall" x1="0" y1="0" x2="1" y2="1">
      <stop offset="0" stop-color="#e5d3b9"/>
      <stop offset="1" stop-color="#b98167"/>
    </linearGradient>
    <linearGradient id="floor" x1="0" y1="0" x2="1" y2="1">
      <stop offset="0" stop-color="#3d3432"/>
      <stop offset="1" stop-color="#16191c"/>
    </linearGradient>
    <linearGradient id="glass" x1="0" y1="0" x2="1" y2="1">
      <stop offset="0" stop-color="#7cb2bd" stop-opacity="0.8"/>
      <stop offset="1" stop-color="#173b46" stop-opacity="0.95"/>
    </linearGradient>
    <filter id="shadow" x="-30%" y="-30%" width="160%" height="160%">
      <feDropShadow dx="0" dy="10" stdDeviation="8" flood-color="#000" flood-opacity="0.55"/>
    </filter>
    <pattern id="tiles" width="72" height="72" patternUnits="userSpaceOnUse" patternTransform="skewX(-18)">
      <rect width="72" height="72" fill="#2f2928"/>
      <path d="M0 0H72V72H0Z" fill="none" stroke="#574842" stroke-width="2"/>
      <path d="M0 36H72M36 0V72" stroke="#201d1d" stroke-width="1"/>
    </pattern>
  </defs>

  <rect width="1600" height="900" fill="#090b0e"/>
  <polygon points="80,90 870,25 1510,170 730,260" fill="url(#wall)"/>
  <polygon points="80,90 730,260 730,840 80,720" fill="#c89d7d"/>
  <polygon points="730,260 1510,170 1510,735 730,840" fill="#a86e5b"/>
  <polygon points="80,720 730,840 1510,735 860,610" fill="url(#tiles)"/>

  <g opacity="0.95">
    <rect x="120" y="130" width="235" height="310" rx="14" fill="#12242c" stroke="#d0b295" stroke-width="12"/>
    <rect x="145" y="160" width="185" height="240" fill="url(#glass)"/>
    <circle cx="235" cy="275" r="42" fill="#0d151a" stroke="#e7c89d" stroke-width="8"/>
    <path d="M217 274a23 23 0 1 0 28-22 18 18 0 1 1-28 22" fill="#f3c56d"/>
  </g>

  <g filter="url(#shadow)">
    <polygon points="240,475 560,425 735,505 410,560" fill="#60413a" stroke="#241b1b" stroke-width="7"/>
    <polygon points="410,560 735,505 735,610 410,665" fill="#3b2928"/>
    <polygon points="240,475 410,560 410,665 240,585" fill="#4b3030"/>
    <polygon points="360,665 690,610 820,675 485,735" fill="#6a3430" stroke="#241b1b" stroke-width="7"/>
    <polygon points="485,735 820,675 820,770 485,825" fill="#3b2222"/>
  </g>

  <g filter="url(#shadow)">
    <polygon points="885,330 1260,280 1415,355 1038,410" fill="#dfc6a8" stroke="#392b28" stroke-width="7"/>
    <polygon points="1038,410 1415,355 1415,610 1038,675" fill="#33292a"/>
    <polygon points="885,330 1038,410 1038,675 885,595" fill="#4a3634"/>
    <rect x="1100" y="420" width="250" height="175" rx="12" fill="#12181b" stroke="#b47e64" stroke-width="7"/>
    <rect x="1127" y="445" width="196" height="122" fill="#233843"/>
  </g>

  <g filter="url(#shadow)">
    <polygon points="545,180 820,145 955,205 675,250" fill="#d6b492" stroke="#3b2a28" stroke-width="7"/>
    <polygon points="675,250 955,205 955,345 675,390" fill="#302628"/>
    <polygon points="545,180 675,250 675,390 545,320" fill="#493431"/>
    <rect x="595" y="218" width="290" height="24" fill="#20191b" opacity="0.7"/>
  </g>

  <g filter="url(#shadow)">
    <polygon points="80,720 365,770 365,870 80,820" fill="#24363c"/>
    <rect x="120" y="555" width="185" height="175" rx="18" fill="#314f56" stroke="#162428" stroke-width="8"/>
    <rect x="145" y="580" width="135" height="105" rx="10" fill="#22393f"/>
    <circle cx="255" cy="612" r="7" fill="#d9af61"/>
  </g>

  <g filter="url(#shadow)">
    <polygon points="1010,625 1330,570 1450,630 1130,690" fill="#73423d" stroke="#241b1b" stroke-width="7"/>
    <polygon points="1130,690 1450,630 1450,760 1130,820" fill="#352426"/>
    <polygon points="1010,625 1130,690 1130,820 1010,755" fill="#4a3031"/>
  </g>

  <g id="warrant" transform="translate(400 128) rotate(-7)" filter="url(#shadow)">
    <rect width="170" height="105" rx="5" fill="#efe2c9" stroke="#57463c" stroke-width="6"/>
    <path d="M22 26H146M22 45H118M22 64H142M22 83H96" stroke="#7b6759" stroke-width="5"/>
    <circle cx="138" cy="78" r="18" fill="none" stroke="#9e3d33" stroke-width="6"/>
  </g>

  <g id="watch" transform="translate(675 230)" filter="url(#shadow)">
    <circle cx="58" cy="58" r="43" fill="#b98b42" stroke="#30251d" stroke-width="8"/>
    <circle cx="58" cy="58" r="29" fill="#efe0bb" stroke="#6c4f28" stroke-width="5"/>
    <path d="M58 58L58 38M58 58L74 66" stroke="#3b2d24" stroke-width="5" stroke-linecap="round"/>
    <path d="M58 14Q89 -5 80 -34" fill="none" stroke="#b98b42" stroke-width="8"/>
  </g>

  <g id="key" transform="translate(560 370) rotate(12)" filter="url(#shadow)">
    <circle cx="28" cy="28" r="22" fill="none" stroke="#d8c7a2" stroke-width="9"/>
    <path d="M47 39L112 72M88 60L100 42M102 67L115 51" stroke="#d8c7a2" stroke-width="10" stroke-linecap="round"/>
  </g>

  <g id="phone" transform="translate(885 300) rotate(-4)" filter="url(#shadow)">
    <rect width="88" height="150" rx="14" fill="#31383c" stroke="#111518" stroke-width="7"/>
    <rect x="14" y="17" width="60" height="55" rx="5" fill="#7f9b8d"/>
    <g fill="#101517">
      <circle cx="24" cy="96" r="7"/><circle cx="44" cy="96" r="7"/><circle cx="64" cy="96" r="7"/>
      <circle cx="24" cy="117" r="7"/><circle cx="44" cy="117" r="7"/><circle cx="64" cy="117" r="7"/>
    </g>
  </g>

  <g id="bowl" transform="translate(292 460)" filter="url(#shadow)">
    <ellipse cx="65" cy="48" rx="62" ry="25" fill="#8ac0c5" stroke="#273b3d" stroke-width="7"/>
    <path d="M10 49Q20 111 65 116Q110 111 120 49" fill="#5d949b" stroke="#273b3d" stroke-width="7"/>
  </g>

  <g id="medicine" transform="translate(938 530)" filter="url(#shadow)">
    <rect x="20" y="0" width="54" height="24" rx="5" fill="#bd7b3f"/>
    <rect x="9" y="20" width="76" height="115" rx="17" fill="#8f4c2d" stroke="#2b1b18" stroke-width="7"/>
    <rect x="18" y="57" width="58" height="45" fill="#efe1c1"/>
    <path d="M31 79H63M47 65V94" stroke="#8a2e29" stroke-width="7"/>
  </g>

  <g id="photo" transform="translate(1190 365) rotate(4)" filter="url(#shadow)">
    <rect width="190" height="150" rx="7" fill="#7a4c31" stroke="#251c19" stroke-width="9"/>
    <rect x="18" y="18" width="154" height="114" fill="#dfc8a9"/>
    <circle cx="65" cy="64" r="23" fill="#795243"/>
    <circle cx="111" cy="59" r="25" fill="#9a6652"/>
    <circle cx="91" cy="96" r="20" fill="#6c493e"/>
    <path d="M35 118Q68 82 96 118Q126 79 158 118" fill="#31535b"/>
  </g>

  <g id="camera" transform="translate(145 570) rotate(-5)" filter="url(#shadow)">
    <rect width="150" height="95" rx="14" fill="#20272b" stroke="#111518" stroke-width="8"/>
    <circle cx="80" cy="50" r="34" fill="#0f1214" stroke="#63747b" stroke-width="8"/>
    <circle cx="80" cy="50" r="15" fill="#49808e"/>
    <rect x="17" y="12" width="42" height="22" rx="4" fill="#b0804c"/>
  </g>

  <g id="radio" transform="translate(760 620) rotate(3)" filter="url(#shadow)">
    <rect width="200" height="112" rx="12" fill="#2b3438" stroke="#111518" stroke-width="8"/>
    <circle cx="52" cy="56" r="34" fill="#151a1d" stroke="#626d70" stroke-width="6"/>
    <rect x="105" y="24" width="70" height="25" rx="4" fill="#788b77"/>
    <g stroke="#9b7b4c" stroke-width="6"><path d="M110 69H175M110 84H175"/></g>
    <path d="M158 2L184 -55" stroke="#939fa5" stroke-width="7"/>
  </g>

  <g id="regulator" transform="translate(1110 595)" filter="url(#shadow)">
    <rect width="180" height="120" rx="16" fill="#26373b" stroke="#111518" stroke-width="9"/>
    <circle cx="52" cy="60" r="34" fill="#111719" stroke="#6a8a8e" stroke-width="8"/>
    <path d="M52 31V89M23 60H81M31 39L73 81M73 39L31 81" stroke="#c2784a" stroke-width="6"/>
    <rect x="105" y="30" width="48" height="18" rx="4" fill="#a84937"/>
    <rect x="105" y="63" width="48" height="18" rx="4" fill="#547d68"/>
  </g>

  <g id="book" transform="translate(470 690) rotate(9)" filter="url(#shadow)">
    <rect width="170" height="78" rx="8" fill="#6f4d3d" stroke="#241b19" stroke-width="7"/>
    <path d="M14 18H154M14 35H138M14 52H150" stroke="#cba17d" stroke-width="4"/>
  </g>

  <g id="lamp" transform="translate(1320 150)" filter="url(#shadow)">
    <path d="M65 10V130" stroke="#242526" stroke-width="13"/>
    <path d="M5 120Q65 55 125 120Z" fill="#c96b4f" stroke="#281d1c" stroke-width="8"/>
    <circle cx="65" cy="136" r="20" fill="#f3c66b" opacity="0.85"/>
  </g>

  <g opacity="0.9">
    <path d="M915 560Q985 430 1070 610" fill="none" stroke="#234e43" stroke-width="18"/>
    <path d="M950 558Q925 465 900 400M986 545Q1015 438 1042 390M1020 575Q1070 480 1130 455" fill="none" stroke="#48785c" stroke-width="16" stroke-linecap="round"/>
    <ellipse cx="1005" cy="610" rx="92" ry="42" fill="#6f3d32" stroke="#2a1d1b" stroke-width="8"/>
  </g>

  <rect x="18" y="18" width="1564" height="864" fill="none" stroke="#f3e3c4" stroke-opacity="0.16" stroke-width="4"/>
</svg>
